<?xml version="1.0" encoding="UTF-8" standalone="no"?>
<!DOCTYPE svg PUBLIC "-//W3C//DTD SVG 1.1//EN"
 "http://www.w3.org/Graphics/SVG/1.1/DTD/svg11.dtd">
<!-- Generated by graphviz version 2.43.0 (0)
 -->
<!-- Title: review Pages: 1 -->
<svg width="568pt" height="723pt"
 viewBox="0.00 0.00 568.07 723.40" xmlns="http://www.w3.org/2000/svg" xmlns:xlink="http://www.w3.org/1999/xlink">
<g id="graph0" class="graph" transform="scale(1 1) rotate(0) translate(7.2 716.2)">
<title>review</title>
<polygon fill="white" stroke="transparent" points="-7.2,7.2 -7.2,-716.2 560.87,-716.2 560.87,7.2 -7.2,7.2"/>
<!-- ppg_dalia&#45;S1&#45;e0&#45;d2&#45;alternative/claim/A_first_4&#45;&gt;enclosure/ppg_dalia&#45;S1&#45;e0&#45;d2&#45;alternative/claim/A_first_4/w1 -->
<g id="bundle/ppg_dalia&#45;S1&#45;e0&#45;d2&#45;alternative/claim/A_first_4/w1" class="edge">
<title>ppg_dalia&#45;S1&#45;e0&#45;d2&#45;alternative/claim/A_first_4&#45;&gt;enclosure/ppg_dalia&#45;S1&#45;e0&#45;d2&#45;alternative/claim/A_first_4/w1</title>
<g id="a_bundle/ppg_dalia&#45;S1&#45;e0&#45;d2&#45;alternative/claim/A_first_4/w1"><a xlink:title="WITNESS_INPUT_BUNDLE: Rendering bundle of the listed stored DEPENDS_ON edges; jointly required inputs.">
<path fill="none" stroke="#52616b" stroke-width="1.15" stroke-dasharray="5,2" d="M241.9,-399.77C240.78,-378.84 239.46,-354.32 238.12,-329.12"/>
<polygon fill="#52616b" stroke="#52616b" stroke-width="1.15" points="240.56,-328.86 237.73,-322 235.67,-329.12 240.56,-328.86"/>
</a>
</g>
<text text-anchor="middle" x="282.17" y="-366" font-family="DejaVu Sans" font-size="15.00">needs all 4</text>
<text text-anchor="middle" x="282.17" y="-349" font-family="DejaVu Sans" font-size="15.00">W1 (AND)</text>
</g>
<!-- ppg_dalia&#45;S1&#45;e0&#45;d2&#45;alternative/claim/B_first_4&#45;&gt;enclosure/ppg_dalia&#45;S1&#45;e0&#45;d2&#45;alternative/claim/B_first_4/w1 -->
<g id="bundle/ppg_dalia&#45;S1&#45;e0&#45;d2&#45;alternative/claim/B_first_4/w1" class="edge">
<title>ppg_dalia&#45;S1&#45;e0&#45;d2&#45;alternative/claim/B_first_4&#45;&gt;enclosure/ppg_dalia&#45;S1&#45;e0&#45;d2&#45;alternative/claim/B_first_4/w1</title>
<g id="a_bundle/ppg_dalia&#45;S1&#45;e0&#45;d2&#45;alternative/claim/B_first_4/w1"><a xlink:title="WITNESS_INPUT_BUNDLE: Rendering bundle of the listed stored DEPENDS_ON edges; jointly required inputs.">
<path fill="none" stroke="#52616b" stroke-width="1.15" stroke-dasharray="5,2" d="M444.02,-399.77C444.65,-378.84 445.38,-354.32 446.14,-329.12"/>
<polygon fill="#52616b" stroke="#52616b" stroke-width="1.15" points="448.59,-329.07 446.36,-322 443.7,-328.92 448.59,-329.07"/>
</a>
</g>
<text text-anchor="middle" x="487.17" y="-366" font-family="DejaVu Sans" font-size="15.00">needs all 4</text>
<text text-anchor="middle" x="487.17" y="-349" font-family="DejaVu Sans" font-size="15.00">W1 (AND)</text>
</g>
<!-- ppg_dalia&#45;S1&#45;e0&#45;d2&#45;alternative/claim/answer&#45;&gt;ppg_dalia&#45;S1&#45;e0&#45;d2&#45;alternative/claim/A_first_4 -->
<g id="5:dd1e886e&#45;45c2&#45;4037&#45;81fc&#45;f9c88d60b234:505344" class="edge">
<title>ppg_dalia&#45;S1&#45;e0&#45;d2&#45;alternative/claim/answer&#45;&gt;ppg_dalia&#45;S1&#45;e0&#45;d2&#45;alternative/claim/A_first_4</title>
<g id="a_5:dd1e886e&#45;45c2&#45;4037&#45;81fc&#45;f9c88d60b234:505344"><a xlink:title="DEPENDS_ON: Dependent → immutable cited input or declared prerequisite; not a causal arrow.">
<path fill="none" stroke="#52616b" stroke-width="1.15" d="M325.71,-584.81C314.11,-567.26 301.4,-548.03 289.57,-530.14"/>
<polygon fill="#52616b" stroke="#52616b" stroke-width="1.15" points="291.5,-528.61 285.59,-524.13 287.41,-531.32 291.5,-528.61"/>
</a>
</g>
<text text-anchor="middle" x="347.67" y="-551" font-family="DejaVu Sans" font-size="15.00">needs W1</text>
</g>
<!-- ppg_dalia&#45;S1&#45;e0&#45;d2&#45;alternative/claim/answer&#45;&gt;ppg_dalia&#45;S1&#45;e0&#45;d2&#45;alternative/claim/B_first_4 -->
<g id="5:dd1e886e&#45;45c2&#45;4037&#45;81fc&#45;f9c88d60b234:505345" class="edge">
<title>ppg_dalia&#45;S1&#45;e0&#45;d2&#45;alternative/claim/answer&#45;&gt;ppg_dalia&#45;S1&#45;e0&#45;d2&#45;alternative/claim/B_first_4</title>
<g id="a_5:dd1e886e&#45;45c2&#45;4037&#45;81fc&#45;f9c88d60b234:505345"><a xlink:title="DEPENDS_ON: Dependent → immutable cited input or declared prerequisite; not a causal arrow.">
<path fill="none" stroke="#52616b" stroke-width="1.15" d="M391.59,-584.81C398.81,-567.41 406.72,-548.37 414.09,-530.61"/>
<polygon fill="#52616b" stroke="#52616b" stroke-width="1.15" points="416.36,-531.53 416.78,-524.13 411.84,-529.66 416.36,-531.53"/>
</a>
</g>
<text text-anchor="middle" x="444.67" y="-551" font-family="DejaVu Sans" font-size="15.00">needs W2</text>
</g>
<!-- ppg_dalia/S1/2270&#45;2300/eda_median/structure&#45;route_loss&#45;v2&#45;&gt;enclosure/ppg_dalia&#45;S1&#45;e0&#45;d2&#45;alternative/claim/A_first_4/w1 -->
<g id="5:dd1e886e&#45;45c2&#45;4037&#45;81fc&#45;f9c88d60b234:505398" class="edge">
<title>ppg_dalia/S1/2270&#45;2300/eda_median/structure&#45;route_loss&#45;v2&#45;&gt;enclosure/ppg_dalia&#45;S1&#45;e0&#45;d2&#45;alternative/claim/A_first_4/w1:p0</title>
<g id="a_5:dd1e886e&#45;45c2&#45;4037&#45;81fc&#45;f9c88d60b234:505398"><a xlink:title="SUPERSEDES: New version → earlier immutable version; does not make historical data false.">
<path fill="none" stroke="#b34b16" stroke-width="1.8" d="M105.92,-602.73C92.09,-580.33 77.24,-551.9 70.17,-524 39.2,-401.64 0,-246.21 119.82,-240.18"/>
<polygon fill="#b34b16" stroke="#b34b16" stroke-width="1.8" points="120.24,-242.62 127.17,-240 120.12,-237.72 120.24,-242.62"/>
</a>
</g>
<text text-anchor="middle" x="100.67" y="-458.5" font-family="DejaVu Sans" font-size="15.00" fill="#a3481a">supersedes</text>
</g>
<!-- ppg_dalia&#45;S1&#45;e0&#45;d2&#45;alternative/claim/A_first_4 -->
<g id="node1" class="node">
<title>ppg_dalia&#45;S1&#45;e0&#45;d2&#45;alternative/claim/A_first_4</title>
<g id="a_node1"><a xlink:title="ppg_dalia&#45;S1&#45;e0&#45;d2&#45;alternative/claim/A_first_4">
<path fill="#e5f2e9" stroke="#b34b16" stroke-width="2.1" d="M314.67,-524C314.67,-524 175.67,-524 175.67,-524 169.67,-524 163.67,-518 163.67,-512 163.67,-512 163.67,-412 163.67,-412 163.67,-406 169.67,-400 175.67,-400 175.67,-400 314.67,-400 314.67,-400 320.67,-400 326.67,-406 326.67,-412 326.67,-412 326.67,-512 326.67,-512 326.67,-518 320.67,-524 314.67,-524"/>
<text text-anchor="middle" x="245.17" y="-503.2" font-family="DejaVu Sans" font-size="16.00">CA · v1</text>
<text text-anchor="middle" x="245.17" y="-485.2" font-family="DejaVu Sans" font-size="16.00">Window A passes</text>
<text text-anchor="middle" x="245.17" y="-467.2" font-family="DejaVu Sans" font-size="16.00">all 4 tests</text>
<text text-anchor="middle" x="245.17" y="-449.2" font-family="DejaVu Sans" font-size="16.00">AND within W1</text>
<text text-anchor="middle" x="245.17" y="-431.2" font-family="DejaVu Sans" font-size="16.00">contradicted</text>
<text text-anchor="middle" x="245.17" y="-413.2" font-family="DejaVu Sans" font-size="16.00">withdrawn</text>
</a>
</g>
</g>
<!-- ppg_dalia&#45;S1&#45;e0&#45;d2&#45;alternative/claim/B_first_4 -->
<g id="node2" class="node">
<title>ppg_dalia&#45;S1&#45;e0&#45;d2&#45;alternative/claim/B_first_4</title>
<g id="a_node2"><a xlink:title="ppg_dalia&#45;S1&#45;e0&#45;d2&#45;alternative/claim/B_first_4">
<path fill="#e5f2e9" stroke="#416779" stroke-width="1.25" d="M511.67,-524C511.67,-524 372.67,-524 372.67,-524 366.67,-524 360.67,-518 360.67,-512 360.67,-512 360.67,-412 360.67,-412 360.67,-406 366.67,-400 372.67,-400 372.67,-400 511.67,-400 511.67,-400 517.67,-400 523.67,-406 523.67,-412 523.67,-412 523.67,-512 523.67,-512 523.67,-518 517.67,-524 511.67,-524"/>
<text text-anchor="middle" x="442.17" y="-503.2" font-family="DejaVu Sans" font-size="16.00">CB · v1</text>
<text text-anchor="middle" x="442.17" y="-485.2" font-family="DejaVu Sans" font-size="16.00">Window B passes</text>
<text text-anchor="middle" x="442.17" y="-467.2" font-family="DejaVu Sans" font-size="16.00">all 4 tests</text>
<text text-anchor="middle" x="442.17" y="-449.2" font-family="DejaVu Sans" font-size="16.00">AND within W1</text>
<text text-anchor="middle" x="442.17" y="-431.2" font-family="DejaVu Sans" font-size="16.00">admitted</text>
<text text-anchor="middle" x="442.17" y="-413.2" font-family="DejaVu Sans" font-size="16.00">displayed</text>
</a>
</g>
</g>
<!-- ppg_dalia&#45;S1&#45;e0&#45;d2&#45;alternative/claim/answer -->
<g id="node3" class="node">
<title>ppg_dalia&#45;S1&#45;e0&#45;d2&#45;alternative/claim/answer</title>
<g id="a_node3"><a xlink:title="ppg_dalia&#45;S1&#45;e0&#45;d2&#45;alternative/claim/answer">
<path fill="#e5f2e9" stroke="#416779" stroke-width="2.1" d="M445.17,-709C445.17,-709 287.17,-709 287.17,-709 281.17,-709 275.17,-703 275.17,-697 275.17,-697 275.17,-597 275.17,-597 275.17,-591 281.17,-585 287.17,-585 287.17,-585 445.17,-585 445.17,-585 451.17,-585 457.17,-591 457.17,-597 457.17,-597 457.17,-697 457.17,-697 457.17,-703 451.17,-709 445.17,-709"/>
<text text-anchor="middle" x="366.17" y="-688.2" font-family="DejaVu Sans" font-size="16.00">R · v1</text>
<text text-anchor="middle" x="366.17" y="-670.2" font-family="DejaVu Sans" font-size="16.00">One window passes</text>
<text text-anchor="middle" x="366.17" y="-652.2" font-family="DejaVu Sans" font-size="16.00">all 4 tests</text>
<text text-anchor="middle" x="366.17" y="-634.2" font-family="DejaVu Sans" font-size="16.00">OR: W1 or W2</text>
<text text-anchor="middle" x="366.17" y="-616.2" font-family="DejaVu Sans" font-size="16.00">supported</text>
<text text-anchor="middle" x="366.17" y="-598.2" font-family="DejaVu Sans" font-size="16.00">displayed</text>
</a>
</g>
</g>
<!-- ppg_dalia/S1/2270&#45;2300/eda_median/structure&#45;route_loss&#45;v2 -->
<g id="node4" class="node">
<title>ppg_dalia/S1/2270&#45;2300/eda_median/structure&#45;route_loss&#45;v2</title>
<g id="a_node4"><a xlink:title="ppg_dalia/S1/2270&#45;2300/eda_median/structure&#45;route_loss&#45;v2">
<path fill="#e5eff8" stroke="#b34b16" stroke-width="2.1" d="M197.67,-691C197.67,-691 74.67,-691 74.67,-691 68.67,-691 62.67,-685 62.67,-679 62.67,-679 62.67,-615 62.67,-615 62.67,-609 68.67,-603 74.67,-603 74.67,-603 197.67,-603 197.67,-603 203.67,-603 209.67,-609 209.67,-615 209.67,-615 209.67,-679 209.67,-679 209.67,-685 203.67,-691 197.67,-691"/>
<text text-anchor="middle" x="136.17" y="-670.2" font-family="DejaVu Sans" font-size="16.00">A1 · v2 · new</text>
<text text-anchor="middle" x="136.17" y="-652.2" font-family="DejaVu Sans" font-size="16.00">EDA median</text>
<text text-anchor="middle" x="136.17" y="-634.2" font-family="DejaVu Sans" font-size="16.00">4.2143 μS</text>
<text text-anchor="middle" x="136.17" y="-616.2" font-family="DejaVu Sans" font-size="16.00">≥ 4.7411 · FAIL</text>
</a>
</g>
</g>
<!-- enclosure/ppg_dalia&#45;S1&#45;e0&#45;d2&#45;alternative/claim/A_first_4/w1 -->
<g id="node5" class="node">
<title>enclosure/ppg_dalia&#45;S1&#45;e0&#45;d2&#45;alternative/claim/A_first_4/w1</title>
<polygon fill="#f7f9fb" stroke="transparent" points="128.17,-265 128.17,-311 330.17,-311 330.17,-265 128.17,-265"/>
<polygon fill="none" stroke="#416779" points="128.17,-265 128.17,-311 330.17,-311 330.17,-265 128.17,-265"/>
<text text-anchor="start" x="141.17" y="-292.2" font-family="DejaVu Sans" font-weight="bold" font-size="16.00">AND witness (view)</text>
<text text-anchor="start" x="147.67" y="-276.2" font-family="DejaVu Sans" font-size="16.00">all 4 inputs required</text>
<polygon fill="#e5eff8" stroke="transparent" points="128.17,-215 128.17,-265 330.17,-265 330.17,-215 128.17,-215"/>
<polygon fill="none" stroke="#416779" points="128.17,-215 128.17,-265 330.17,-265 330.17,-215 128.17,-215"/>
<text text-anchor="start" x="147.67" y="-245.2" font-family="DejaVu Sans" font-size="16.00">A1 v1 · EDA median</text>
<text text-anchor="start" x="135.17" y="-227.2" font-family="DejaVu Sans" font-size="16.00">5.3749 μS · prior value</text>
<polygon fill="#e5eff8" stroke="transparent" points="128.17,-147 128.17,-215 330.17,-215 330.17,-147 128.17,-147"/>
<polygon fill="none" stroke="#416779" points="128.17,-147 128.17,-215 330.17,-215 330.17,-147 128.17,-147"/>
<text text-anchor="start" x="164.17" y="-195.2" font-family="DejaVu Sans" font-size="16.00">A2 v1 · EDA IQR</text>
<text text-anchor="start" x="140.67" y="-177.2" font-family="DejaVu Sans" font-size="16.00">0.5208 ≥ 0.41525 μS</text>
<text text-anchor="start" x="210.67" y="-159.2" font-family="DejaVu Sans" font-size="16.00">pass</text>
<polygon fill="#e5eff8" stroke="transparent" points="128.17,-79 128.17,-147 330.17,-147 330.17,-79 128.17,-79"/>
<polygon fill="none" stroke="#416779" points="128.17,-79 128.17,-147 330.17,-147 330.17,-79 128.17,-79"/>
<text text-anchor="start" x="166.67" y="-127.2" font-family="DejaVu Sans" font-size="16.00">A3 v1 · Acc. SD</text>
<text text-anchor="start" x="140.67" y="-109.2" font-family="DejaVu Sans" font-size="16.00">0.21871 ≥ 0.19684 g</text>
<text text-anchor="start" x="210.67" y="-91.2" font-family="DejaVu Sans" font-size="16.00">pass</text>
<polygon fill="#e5eff8" stroke="transparent" points="128.17,-11 128.17,-79 330.17,-79 330.17,-11 128.17,-11"/>
<polygon fill="none" stroke="#416779" points="128.17,-11 128.17,-79 330.17,-79 330.17,-11 128.17,-11"/>
<text text-anchor="start" x="147.17" y="-59.2" font-family="DejaVu Sans" font-size="16.00">A4 v1 · EDA missing</text>
<text text-anchor="start" x="159.67" y="-41.2" font-family="DejaVu Sans" font-size="16.00">0 ≤ 0.05 fraction</text>
<text text-anchor="start" x="210.67" y="-23.2" font-family="DejaVu Sans" font-size="16.00">pass</text>
</g>
<!-- enclosure/ppg_dalia&#45;S1&#45;e0&#45;d2&#45;alternative/claim/B_first_4/w1 -->
<g id="node6" class="node">
<title>enclosure/ppg_dalia&#45;S1&#45;e0&#45;d2&#45;alternative/claim/B_first_4/w1</title>
<polygon fill="#f7f9fb" stroke="transparent" points="351.17,-274 351.17,-320 552.17,-320 552.17,-274 351.17,-274"/>
<polygon fill="none" stroke="#416779" points="351.17,-274 351.17,-320 552.17,-320 552.17,-274 351.17,-274"/>
<text text-anchor="start" x="363.67" y="-301.2" font-family="DejaVu Sans" font-weight="bold" font-size="16.00">AND witness (view)</text>
<text text-anchor="start" x="370.17" y="-285.2" font-family="DejaVu Sans" font-size="16.00">all 4 inputs required</text>
<polygon fill="#e5eff8" stroke="transparent" points="351.17,-206 351.17,-274 552.17,-274 552.17,-206 351.17,-206"/>
<polygon fill="none" stroke="#416779" points="351.17,-206 351.17,-274 552.17,-274 552.17,-206 351.17,-206"/>
<text text-anchor="start" x="370.17" y="-254.2" font-family="DejaVu Sans" font-size="16.00">B1 v1 · EDA median</text>
<text text-anchor="start" x="368.67" y="-236.2" font-family="DejaVu Sans" font-size="16.00">5.2679 ≥ 4.7411 μS</text>
<text text-anchor="start" x="433.17" y="-218.2" font-family="DejaVu Sans" font-size="16.00">pass</text>
<polygon fill="#e5eff8" stroke="transparent" points="351.17,-138 351.17,-206 552.17,-206 552.17,-138 351.17,-138"/>
<polygon fill="none" stroke="#416779" points="351.17,-138 351.17,-206 552.17,-206 552.17,-138 351.17,-138"/>
<text text-anchor="start" x="386.67" y="-186.2" font-family="DejaVu Sans" font-size="16.00">B2 v1 · EDA IQR</text>
<text text-anchor="start" x="358.17" y="-168.2" font-family="DejaVu Sans" font-size="16.00">0.46139 ≥ 0.41525 μS</text>
<text text-anchor="start" x="433.17" y="-150.2" font-family="DejaVu Sans" font-size="16.00">pass</text>
<polygon fill="#e5eff8" stroke="transparent" points="351.17,-70 351.17,-138 552.17,-138 552.17,-70 351.17,-70"/>
<polygon fill="none" stroke="#416779" points="351.17,-70 351.17,-138 552.17,-138 552.17,-70 351.17,-70"/>
<text text-anchor="start" x="389.17" y="-118.2" font-family="DejaVu Sans" font-size="16.00">B3 v1 · Acc. SD</text>
<text text-anchor="start" x="363.17" y="-100.2" font-family="DejaVu Sans" font-size="16.00">0.34171 ≥ 0.19684 g</text>
<text text-anchor="start" x="433.17" y="-82.2" font-family="DejaVu Sans" font-size="16.00">pass</text>
<polygon fill="#e5eff8" stroke="transparent" points="351.17,-2 351.17,-70 552.17,-70 552.17,-2 351.17,-2"/>
<polygon fill="none" stroke="#416779" points="351.17,-2 351.17,-70 552.17,-70 552.17,-2 351.17,-2"/>
<text text-anchor="start" x="369.67" y="-50.2" font-family="DejaVu Sans" font-size="16.00">B4 v1 · EDA missing</text>
<text text-anchor="start" x="382.17" y="-32.2" font-family="DejaVu Sans" font-size="16.00">0 ≤ 0.05 fraction</text>
<text text-anchor="start" x="433.17" y="-14.2" font-family="DejaVu Sans" font-size="16.00">pass</text>
</g>
<!-- __layout_min -->
<!-- __layout_max -->
</g>
</svg>
