<?xml version="1.0" encoding="utf-8" standalone="no"?>
<!DOCTYPE svg PUBLIC "-//W3C//DTD SVG 1.1//EN"
  "http://www.w3.org/Graphics/SVG/1.1/DTD/svg11.dtd">
<!-- Created with matplotlib (https://matplotlib.org/) -->
<svg height="310.031719pt" version="1.1" viewBox="0 0 758.088 310.031719" width="758.088pt" xmlns="http://www.w3.org/2000/svg" xmlns:xlink="http://www.w3.org/1999/xlink">
 <defs>
  <style type="text/css">
*{stroke-linecap:butt;stroke-linejoin:round;}
  </style>
 </defs>
 <g id="figure_1">
  <g id="patch_1">
   <path d="M 0 310.031719
L 758.088 310.031719
L 758.088 0
L 0 0
z
" style="fill:#ffffff;"/>
  </g>
  <g id="axes_1">
   <g id="patch_2">
    <path d="M 57.818 244.96
L 371.718 244.96
L 371.718 36.36
L 57.818 36.36
z
" style="fill:#ffffff;"/>
   </g>
   <g id="PolyCollection_1">
    <defs>
     <path d="M 72.086182 -263.765559
L 72.086182 -115.417347
L 114.890727 -102.669836
L 357.449818 -90.429389
L 357.449818 -205.578667
L 357.449818 -205.578667
L 114.890727 -242.120361
L 72.086182 -263.765559
z
" id="mb6f523f23a" style="stroke:#2371a5;stroke-opacity:0.13;"/>
    </defs>
    <g clip-path="url(#pb16d996722)">
     <use style="fill:#2371a5;fill-opacity:0.13;stroke:#2371a5;stroke-opacity:0.13;" x="0" xlink:href="#mb6f523f23a" y="310.031719"/>
    </g>
   </g>
   <g id="PolyCollection_2">
    <defs>
     <path d="M 72.086182 -264.189901
L 72.086182 -116.632956
L 114.890727 -103.920685
L 357.449818 -91.350329
L 357.449818 -206.041116
L 357.449818 -206.041116
L 114.890727 -241.530055
L 72.086182 -264.189901
z
" id="m0113c63396" style="stroke:#da7927;stroke-opacity:0.13;"/>
    </defs>
    <g clip-path="url(#pb16d996722)">
     <use style="fill:#da7927;fill-opacity:0.13;stroke:#da7927;stroke-opacity:0.13;" x="0" xlink:href="#m0113c63396" y="310.031719"/>
    </g>
   </g>
   <g id="matplotlib.axis_1">
    <g id="xtick_1">
     <g id="line2d_1">
      <defs>
       <path d="M 0 0
L 0 3.5
" id="m426145862a" style="stroke:#000000;stroke-width:0.8;"/>
      </defs>
      <g>
       <use style="stroke:#000000;stroke-width:0.8;" x="72.086182" xlink:href="#m426145862a" y="244.96"/>
      </g>
     </g>
     <g id="text_1">
      <text style="font-family:DejaVu Sans;font-size:11px;font-style:normal;font-weight:normal;text-anchor:middle;" transform="rotate(-0, 72.086182, 260.318281)" x="72.086182" y="260.318281">0</text>
     </g>
    </g>
    <g id="xtick_2">
     <g id="line2d_2">
      <g>
       <use style="stroke:#000000;stroke-width:0.8;" x="114.890727" xlink:href="#m426145862a" y="244.96"/>
      </g>
     </g>
     <g id="text_2">
      <text style="font-family:DejaVu Sans;font-size:11px;font-style:normal;font-weight:normal;text-anchor:middle;" transform="rotate(-0, 114.890727, 260.318281)" x="114.890727" y="260.318281">15</text>
     </g>
    </g>
    <g id="xtick_3">
     <g id="line2d_3">
      <g>
       <use style="stroke:#000000;stroke-width:0.8;" x="357.449818" xlink:href="#m426145862a" y="244.96"/>
      </g>
     </g>
     <g id="text_3">
      <text style="font-family:DejaVu Sans;font-size:11px;font-style:normal;font-weight:normal;text-anchor:middle;" transform="rotate(-0, 357.449818, 260.318281)" x="357.449818" y="260.318281">100</text>
     </g>
    </g>
    <g id="text_4">
     <text style="font-family:DejaVu Sans;font-size:11px;font-style:normal;font-weight:normal;text-anchor:middle;" transform="rotate(-0, 214.768, 274.964219)" x="214.768" y="274.964219">Retained local sensors (%)</text>
    </g>
   </g>
   <g id="matplotlib.axis_2">
    <g id="ytick_1">
     <g id="line2d_4">
      <defs>
       <path d="M 0 0
L -3.5 0
" id="m2b8f73a8fb" style="stroke:#000000;stroke-width:0.8;"/>
      </defs>
      <g>
       <use style="stroke:#000000;stroke-width:0.8;" x="57.818" xlink:href="#m2b8f73a8fb" y="208.526915"/>
      </g>
     </g>
     <g id="text_5">
      <text style="font-family:DejaVu Sans;font-size:11px;font-style:normal;font-weight:normal;text-anchor:end;" transform="rotate(-0, 50.818, 212.706056)" x="50.818" y="212.706056">0.04</text>
     </g>
    </g>
    <g id="ytick_2">
     <g id="line2d_5">
      <g>
       <use style="stroke:#000000;stroke-width:0.8;" x="57.818" xlink:href="#m2b8f73a8fb" y="168.72863"/>
      </g>
     </g>
     <g id="text_6">
      <text style="font-family:DejaVu Sans;font-size:11px;font-style:normal;font-weight:normal;text-anchor:end;" transform="rotate(-0, 50.818, 172.90777)" x="50.818" y="172.90777">0.06</text>
     </g>
    </g>
    <g id="ytick_3">
     <g id="line2d_6">
      <g>
       <use style="stroke:#000000;stroke-width:0.8;" x="57.818" xlink:href="#m2b8f73a8fb" y="128.930344"/>
      </g>
     </g>
     <g id="text_7">
      <text style="font-family:DejaVu Sans;font-size:11px;font-style:normal;font-weight:normal;text-anchor:end;" transform="rotate(-0, 50.818, 133.109485)" x="50.818" y="133.109485">0.08</text>
     </g>
    </g>
    <g id="ytick_4">
     <g id="line2d_7">
      <g>
       <use style="stroke:#000000;stroke-width:0.8;" x="57.818" xlink:href="#m2b8f73a8fb" y="89.132059"/>
      </g>
     </g>
     <g id="text_8">
      <text style="font-family:DejaVu Sans;font-size:11px;font-style:normal;font-weight:normal;text-anchor:end;" transform="rotate(-0, 50.818, 93.3112)" x="50.818" y="93.3112">0.10</text>
     </g>
    </g>
    <g id="ytick_5">
     <g id="line2d_8">
      <g>
       <use style="stroke:#000000;stroke-width:0.8;" x="57.818" xlink:href="#m2b8f73a8fb" y="49.333774"/>
      </g>
     </g>
     <g id="text_9">
      <text style="font-family:DejaVu Sans;font-size:11px;font-style:normal;font-weight:normal;text-anchor:end;" transform="rotate(-0, 50.818, 53.512915)" x="50.818" y="53.512915">0.12</text>
     </g>
    </g>
    <g id="text_10">
     <text style="font-family:DejaVu Sans;font-size:11px;font-style:normal;font-weight:normal;text-anchor:middle;" transform="rotate(-90, 20.038156, 140.66)" x="20.038156" y="140.66">Validation Brier score</text>
    </g>
   </g>
   <g id="line2d_9">
    <path clip-path="url(#pb16d996722)" d="M 72.086182 121.283899
L 114.890727 138.418101
L 357.449818 163.02655
" style="fill:none;stroke:#2371a5;stroke-linecap:square;stroke-width:1.5;"/>
    <defs>
     <path d="M 0 3
C 0.795609 3 1.55874 2.683901 2.12132 2.12132
C 2.683901 1.55874 3 0.795609 3 0
C 3 -0.795609 2.683901 -1.55874 2.12132 -2.12132
C 1.55874 -2.683901 0.795609 -3 0 -3
C -0.795609 -3 -1.55874 -2.683901 -2.12132 -2.12132
C -2.683901 -1.55874 -3 -0.795609 -3 0
C -3 0.795609 -2.683901 1.55874 -2.12132 2.12132
C -1.55874 2.683901 -0.795609 3 0 3
z
" id="m4c6450f6b9" style="stroke:#2371a5;"/>
    </defs>
    <g clip-path="url(#pb16d996722)">
     <use style="fill:#2371a5;stroke:#2371a5;" x="72.086182" xlink:href="#m4c6450f6b9" y="121.283899"/>
     <use style="fill:#2371a5;stroke:#2371a5;" x="114.890727" xlink:href="#m4c6450f6b9" y="138.418101"/>
     <use style="fill:#2371a5;stroke:#2371a5;" x="357.449818" xlink:href="#m4c6450f6b9" y="163.02655"/>
    </g>
   </g>
   <g id="line2d_10">
    <path clip-path="url(#pb16d996722)" d="M 72.086182 120.360063
L 114.890727 138.141346
L 357.449818 162.252127
" style="fill:none;stroke:#da7927;stroke-linecap:square;stroke-width:1.5;"/>
    <defs>
     <path d="M 0 3
C 0.795609 3 1.55874 2.683901 2.12132 2.12132
C 2.683901 1.55874 3 0.795609 3 0
C 3 -0.795609 2.683901 -1.55874 2.12132 -2.12132
C 1.55874 -2.683901 0.795609 -3 0 -3
C -0.795609 -3 -1.55874 -2.683901 -2.12132 -2.12132
C -2.683901 -1.55874 -3 -0.795609 -3 0
C -3 0.795609 -2.683901 1.55874 -2.12132 2.12132
C -1.55874 2.683901 -0.795609 3 0 3
z
" id="m2d2f695ea4" style="stroke:#da7927;"/>
    </defs>
    <g clip-path="url(#pb16d996722)">
     <use style="fill:#da7927;stroke:#da7927;" x="72.086182" xlink:href="#m2d2f695ea4" y="120.360063"/>
     <use style="fill:#da7927;stroke:#da7927;" x="114.890727" xlink:href="#m2d2f695ea4" y="138.141346"/>
     <use style="fill:#da7927;stroke:#da7927;" x="357.449818" xlink:href="#m2d2f695ea4" y="162.252127"/>
    </g>
   </g>
   <g id="line2d_11">
    <path clip-path="url(#pb16d996722)" d="M 57.818 235.478182
L 371.718 235.478182
" style="fill:none;stroke:#777777;stroke-dasharray:5.55,2.4;stroke-dashoffset:0;stroke-width:1.5;"/>
   </g>
   <g id="patch_3">
    <path d="M 57.818 244.96
L 57.818 36.36
" style="fill:none;stroke:#000000;stroke-linecap:square;stroke-linejoin:miter;stroke-width:0.8;"/>
   </g>
   <g id="patch_4">
    <path d="M 57.818 244.96
L 371.718 244.96
" style="fill:none;stroke:#000000;stroke-linecap:square;stroke-linejoin:miter;stroke-width:0.8;"/>
   </g>
   <g id="legend_1">
    <g id="patch_5">
     <path d="M 212.882063 83.190938
L 365.418 83.190938
Q 367.218 83.190938 367.218 81.390938
L 367.218 42.66
Q 367.218 40.86 365.418 40.86
L 212.882063 40.86
Q 211.082063 40.86 211.082063 42.66
L 211.082063 81.390938
Q 211.082063 83.190938 212.882063 83.190938
z
" style="fill:#ffffff;opacity:0.8;stroke:#cccccc;stroke-linejoin:miter;"/>
    </g>
    <g id="line2d_12">
     <path d="M 214.682063 48.148594
L 232.682063 48.148594
" style="fill:none;stroke:#2371a5;stroke-linecap:square;stroke-width:1.5;"/>
    </g>
    <g id="line2d_13">
     <g>
      <use style="fill:#2371a5;stroke:#2371a5;" x="223.682063" xlink:href="#m4c6450f6b9" y="48.148594"/>
     </g>
    </g>
    <g id="text_11">
     <text style="font-family:DejaVu Sans;font-size:9px;font-style:normal;font-weight:normal;text-anchor:start;" transform="rotate(-0, 239.882063, 51.298594)" x="239.882063" y="51.298594">Fine MC, N=256</text>
    </g>
    <g id="line2d_14">
     <path d="M 214.682063 61.358906
L 232.682063 61.358906
" style="fill:none;stroke:#da7927;stroke-linecap:square;stroke-width:1.5;"/>
    </g>
    <g id="line2d_15">
     <g>
      <use style="fill:#da7927;stroke:#da7927;" x="223.682063" xlink:href="#m2d2f695ea4" y="61.358906"/>
     </g>
    </g>
    <g id="text_12">
     <text style="font-family:DejaVu Sans;font-size:9px;font-style:normal;font-weight:normal;text-anchor:start;" transform="rotate(-0, 239.882063, 64.508906)" x="239.882063" y="64.508906">Fine MC, N=1,024</text>
    </g>
    <g id="line2d_16">
     <path d="M 214.682063 74.569219
L 232.682063 74.569219
" style="fill:none;stroke:#777777;stroke-dasharray:5.55,2.4;stroke-dashoffset:0;stroke-width:1.5;"/>
    </g>
    <g id="line2d_17"/>
    <g id="text_13">
     <text style="font-family:DejaVu Sans;font-size:9px;font-style:normal;font-weight:normal;text-anchor:start;" transform="rotate(-0, 239.882063, 77.719219)" x="239.882063" y="77.719219">Aggregate + heterogeneity</text>
    </g>
   </g>
  </g>
  <g id="axes_2">
   <g id="patch_6">
    <path d="M 436.988 244.96
L 750.888 244.96
L 750.888 36.36
L 436.988 36.36
z
" style="fill:#ffffff;"/>
   </g>
   <g id="matplotlib.axis_3">
    <g id="xtick_4">
     <g id="line2d_18">
      <g>
       <use style="stroke:#000000;stroke-width:0.8;" x="448.507266" xlink:href="#m426145862a" y="244.96"/>
      </g>
     </g>
     <g id="text_14">
      <text style="font-family:DejaVu Sans;font-size:11px;font-style:normal;font-weight:normal;text-anchor:middle;" transform="rotate(-0, 448.507266, 260.318281)" x="448.507266" y="260.318281">0</text>
     </g>
    </g>
    <g id="xtick_5">
     <g id="line2d_19">
      <g>
       <use style="stroke:#000000;stroke-width:0.8;" x="491.704514" xlink:href="#m426145862a" y="244.96"/>
      </g>
     </g>
     <g id="text_15">
      <text style="font-family:DejaVu Sans;font-size:11px;font-style:normal;font-weight:normal;text-anchor:middle;" transform="rotate(-0, 491.704514, 260.318281)" x="491.704514" y="260.318281">15</text>
     </g>
    </g>
    <g id="xtick_6">
     <g id="line2d_20">
      <g>
       <use style="stroke:#000000;stroke-width:0.8;" x="736.488917" xlink:href="#m426145862a" y="244.96"/>
      </g>
     </g>
     <g id="text_16">
      <text style="font-family:DejaVu Sans;font-size:11px;font-style:normal;font-weight:normal;text-anchor:middle;" transform="rotate(-0, 736.488917, 260.318281)" x="736.488917" y="260.318281">100</text>
     </g>
    </g>
    <g id="text_17">
     <text style="font-family:DejaVu Sans;font-size:11px;font-style:normal;font-weight:normal;text-anchor:middle;" transform="rotate(-0, 593.938, 274.964219)" x="593.938" y="274.964219">Retained local sensors (%)</text>
    </g>
   </g>
   <g id="matplotlib.axis_4">
    <g id="ytick_6">
     <g id="line2d_21">
      <g>
       <use style="stroke:#000000;stroke-width:0.8;" x="436.988" xlink:href="#m2b8f73a8fb" y="225.457399"/>
      </g>
     </g>
     <g id="text_18">
      <text style="font-family:DejaVu Sans;font-size:11px;font-style:normal;font-weight:normal;text-anchor:end;" transform="rotate(-0, 429.988, 229.636539)" x="429.988" y="229.636539">1.200</text>
     </g>
    </g>
    <g id="ytick_7">
     <g id="line2d_22">
      <g>
       <use style="stroke:#000000;stroke-width:0.8;" x="436.988" xlink:href="#m2b8f73a8fb" y="197.793612"/>
      </g>
     </g>
     <g id="text_19">
      <text style="font-family:DejaVu Sans;font-size:11px;font-style:normal;font-weight:normal;text-anchor:end;" transform="rotate(-0, 429.988, 201.972753)" x="429.988" y="201.972753">1.225</text>
     </g>
    </g>
    <g id="ytick_8">
     <g id="line2d_23">
      <g>
       <use style="stroke:#000000;stroke-width:0.8;" x="436.988" xlink:href="#m2b8f73a8fb" y="170.129826"/>
      </g>
     </g>
     <g id="text_20">
      <text style="font-family:DejaVu Sans;font-size:11px;font-style:normal;font-weight:normal;text-anchor:end;" transform="rotate(-0, 429.988, 174.308967)" x="429.988" y="174.308967">1.250</text>
     </g>
    </g>
    <g id="ytick_9">
     <g id="line2d_24">
      <g>
       <use style="stroke:#000000;stroke-width:0.8;" x="436.988" xlink:href="#m2b8f73a8fb" y="142.46604"/>
      </g>
     </g>
     <g id="text_21">
      <text style="font-family:DejaVu Sans;font-size:11px;font-style:normal;font-weight:normal;text-anchor:end;" transform="rotate(-0, 429.988, 146.645181)" x="429.988" y="146.645181">1.275</text>
     </g>
    </g>
    <g id="ytick_10">
     <g id="line2d_25">
      <g>
       <use style="stroke:#000000;stroke-width:0.8;" x="436.988" xlink:href="#m2b8f73a8fb" y="114.802254"/>
      </g>
     </g>
     <g id="text_22">
      <text style="font-family:DejaVu Sans;font-size:11px;font-style:normal;font-weight:normal;text-anchor:end;" transform="rotate(-0, 429.988, 118.981394)" x="429.988" y="118.981394">1.300</text>
     </g>
    </g>
    <g id="ytick_11">
     <g id="line2d_26">
      <g>
       <use style="stroke:#000000;stroke-width:0.8;" x="436.988" xlink:href="#m2b8f73a8fb" y="87.138467"/>
      </g>
     </g>
     <g id="text_23">
      <text style="font-family:DejaVu Sans;font-size:11px;font-style:normal;font-weight:normal;text-anchor:end;" transform="rotate(-0, 429.988, 91.317608)" x="429.988" y="91.317608">1.325</text>
     </g>
    </g>
    <g id="ytick_12">
     <g id="line2d_27">
      <g>
       <use style="stroke:#000000;stroke-width:0.8;" x="436.988" xlink:href="#m2b8f73a8fb" y="59.474681"/>
      </g>
     </g>
     <g id="text_24">
      <text style="font-family:DejaVu Sans;font-size:11px;font-style:normal;font-weight:normal;text-anchor:end;" transform="rotate(-0, 429.988, 63.653822)" x="429.988" y="63.653822">1.350</text>
     </g>
    </g>
    <g id="text_25">
     <text style="font-family:DejaVu Sans;font-size:11px;font-style:normal;font-weight:normal;text-anchor:middle;" transform="rotate(-90, 392.209406, 140.66)" x="392.209406" y="140.66">Hidden-history RMSE (log odds)</text>
    </g>
   </g>
   <g id="line2d_28">
    <path clip-path="url(#p5394ef5d2e)" d="M 448.507266 45.841818
L 491.704514 235.478182
" style="fill:none;stroke:#2371a5;stroke-linecap:square;stroke-width:1.5;"/>
    <g clip-path="url(#p5394ef5d2e)">
     <use style="fill:#2371a5;stroke:#2371a5;" x="448.507266" xlink:href="#m4c6450f6b9" y="45.841818"/>
     <use style="fill:#2371a5;stroke:#2371a5;" x="491.704514" xlink:href="#m4c6450f6b9" y="235.478182"/>
    </g>
   </g>
   <g id="patch_7">
    <path d="M 436.988 244.96
L 436.988 36.36
" style="fill:none;stroke:#000000;stroke-linecap:square;stroke-linejoin:miter;stroke-width:0.8;"/>
   </g>
   <g id="patch_8">
    <path d="M 436.988 244.96
L 750.888 244.96
" style="fill:none;stroke:#000000;stroke-linecap:square;stroke-linejoin:miter;stroke-width:0.8;"/>
   </g>
   <g id="text_26">
    <text style="fill:#777777;font-family:DejaVu Sans;font-size:9px;font-style:normal;font-weight:normal;text-anchor:end;" transform="rotate(-0, 730.729284, 49.456594)" x="730.729284" y="49.456594">100%: no hidden values</text>
   </g>
  </g>
  <g id="text_27">
   <text style="font-family:DejaVu Sans;font-size:13px;font-style:normal;font-weight:normal;text-anchor:middle;" transform="rotate(-0, 381.168, 17.077969)" x="381.168" y="17.077969">PEMS-BAY development pilot: information and reconstruction</text>
  </g>
  <g id="text_28">
   <text style="font-family:DejaVu Sans;font-size:9px;font-style:normal;font-weight:normal;text-anchor:start;" transform="rotate(-0, 7.2, 300.96)" x="7.2" y="300.96">128 time-selected validation origins; 127 scorable. Shading: paired-day bootstrap 95% intervals for each score. No test outcomes.</text>
  </g>
 </g>
 <defs>
  <clipPath id="pb16d996722">
   <rect height="208.6" width="313.9" x="57.818" y="36.36"/>
  </clipPath>
  <clipPath id="p5394ef5d2e">
   <rect height="208.6" width="313.9" x="436.988" y="36.36"/>
  </clipPath>
 </defs>
</svg>
