<?xml version="1.0" encoding="utf-8" standalone="no"?>
<!DOCTYPE svg PUBLIC "-//W3C//DTD SVG 1.1//EN"
  "http://www.w3.org/Graphics/SVG/1.1/DTD/svg11.dtd">
<!-- Created with matplotlib (https://matplotlib.org/) -->
<svg height="324.11575pt" version="1.1" viewBox="0 0 759.168 324.11575" width="759.168pt" xmlns="http://www.w3.org/2000/svg" xmlns:xlink="http://www.w3.org/1999/xlink">
 <defs>
  <style type="text/css">
*{stroke-linecap:butt;stroke-linejoin:round;}
  </style>
 </defs>
 <g id="figure_1">
  <g id="patch_1">
   <path d="M 0 324.11575
L 759.168 324.11575
L 759.168 0
L 0 0
z
" style="fill:#ffffff;"/>
  </g>
  <g id="axes_1">
   <g id="patch_2">
    <path d="M 44.228 264.004
L 367.093 264.004
L 367.093 36.576
L 44.228 36.576
z
" style="fill:#ffffff;"/>
   </g>
   <g id="patch_3">
    <path clip-path="url(#p7d2d87596d)" d="M 58.903682 264.004
L 96.140486 264.004
L 96.140486 47.405905
L 58.903682 47.405905
z
" style="fill:#2371a5;"/>
   </g>
   <g id="patch_4">
    <path clip-path="url(#p7d2d87596d)" d="M 168.423695 264.004
L 205.6605 264.004
L 205.6605 55.321622
L 168.423695 55.321622
z
" style="fill:#2371a5;"/>
   </g>
   <g id="patch_5">
    <path clip-path="url(#p7d2d87596d)" d="M 277.943709 264.004
L 315.180514 264.004
L 315.180514 56.278623
L 277.943709 56.278623
z
" style="fill:#2371a5;"/>
   </g>
   <g id="patch_6">
    <path clip-path="url(#p7d2d87596d)" d="M 96.140486 264.004
L 133.377291 264.004
L 133.377291 198.278583
L 96.140486 198.278583
z
" style="fill:#da7927;"/>
   </g>
   <g id="patch_7">
    <path clip-path="url(#p7d2d87596d)" d="M 205.6605 264.004
L 242.897305 264.004
L 242.897305 200.793631
L 205.6605 200.793631
z
" style="fill:#da7927;"/>
   </g>
   <g id="patch_8">
    <path clip-path="url(#p7d2d87596d)" d="M 315.180514 264.004
L 352.417318 264.004
L 352.417318 200.945878
L 315.180514 200.945878
z
" style="fill:#da7927;"/>
   </g>
   <g id="matplotlib.axis_1">
    <g id="xtick_1">
     <g id="line2d_1">
      <defs>
       <path d="M 0 0
L 0 3.5
" id="m824f4552c8" style="stroke:#000000;stroke-width:0.8;"/>
      </defs>
      <g>
       <use style="stroke:#000000;stroke-width:0.8;" x="96.140486" xlink:href="#m824f4552c8" y="264.004"/>
      </g>
     </g>
     <g id="text_1">
      <text style="font-family:DejaVu Sans;font-size:10px;font-style:normal;font-weight:normal;text-anchor:middle;" transform="rotate(-0, 96.140486, 278.602437)" x="96.140486" y="278.602437">0%</text>
     </g>
    </g>
    <g id="xtick_2">
     <g id="line2d_2">
      <g>
       <use style="stroke:#000000;stroke-width:0.8;" x="205.6605" xlink:href="#m824f4552c8" y="264.004"/>
      </g>
     </g>
     <g id="text_2">
      <text style="font-family:DejaVu Sans;font-size:10px;font-style:normal;font-weight:normal;text-anchor:middle;" transform="rotate(-0, 205.6605, 278.602437)" x="205.6605" y="278.602437">15%</text>
     </g>
    </g>
    <g id="xtick_3">
     <g id="line2d_3">
      <g>
       <use style="stroke:#000000;stroke-width:0.8;" x="315.180514" xlink:href="#m824f4552c8" y="264.004"/>
      </g>
     </g>
     <g id="text_3">
      <text style="font-family:DejaVu Sans;font-size:10px;font-style:normal;font-weight:normal;text-anchor:middle;" transform="rotate(-0, 315.180514, 278.602437)" x="315.180514" y="278.602437">100%</text>
     </g>
    </g>
    <g id="text_4">
     <text style="font-family:DejaVu Sans;font-size:10px;font-style:normal;font-weight:normal;text-anchor:middle;" transform="rotate(-0, 205.6605, 292.280562)" x="205.6605" y="292.280562">Retained local sensors</text>
    </g>
   </g>
   <g id="matplotlib.axis_2">
    <g id="ytick_1">
     <g id="line2d_4">
      <defs>
       <path d="M 0 0
L -3.5 0
" id="mffaffce62d" style="stroke:#000000;stroke-width:0.8;"/>
      </defs>
      <g>
       <use style="stroke:#000000;stroke-width:0.8;" x="44.228" xlink:href="#mffaffce62d" y="264.004"/>
      </g>
     </g>
     <g id="text_5">
      <text style="font-family:DejaVu Sans;font-size:10px;font-style:normal;font-weight:normal;text-anchor:end;" transform="rotate(-0, 37.228, 267.803219)" x="37.228" y="267.803219">0</text>
     </g>
    </g>
    <g id="ytick_2">
     <g id="line2d_5">
      <g>
       <use style="stroke:#000000;stroke-width:0.8;" x="44.228" xlink:href="#mffaffce62d" y="227.014255"/>
      </g>
     </g>
     <g id="text_6">
      <text style="font-family:DejaVu Sans;font-size:10px;font-style:normal;font-weight:normal;text-anchor:end;" transform="rotate(-0, 37.228, 230.813474)" x="37.228" y="230.813474">5</text>
     </g>
    </g>
    <g id="ytick_3">
     <g id="line2d_6">
      <g>
       <use style="stroke:#000000;stroke-width:0.8;" x="44.228" xlink:href="#mffaffce62d" y="190.02451"/>
      </g>
     </g>
     <g id="text_7">
      <text style="font-family:DejaVu Sans;font-size:10px;font-style:normal;font-weight:normal;text-anchor:end;" transform="rotate(-0, 37.228, 193.823729)" x="37.228" y="193.823729">10</text>
     </g>
    </g>
    <g id="ytick_4">
     <g id="line2d_7">
      <g>
       <use style="stroke:#000000;stroke-width:0.8;" x="44.228" xlink:href="#mffaffce62d" y="153.034765"/>
      </g>
     </g>
     <g id="text_8">
      <text style="font-family:DejaVu Sans;font-size:10px;font-style:normal;font-weight:normal;text-anchor:end;" transform="rotate(-0, 37.228, 156.833984)" x="37.228" y="156.833984">15</text>
     </g>
    </g>
    <g id="ytick_5">
     <g id="line2d_8">
      <g>
       <use style="stroke:#000000;stroke-width:0.8;" x="44.228" xlink:href="#mffaffce62d" y="116.045021"/>
      </g>
     </g>
     <g id="text_9">
      <text style="font-family:DejaVu Sans;font-size:10px;font-style:normal;font-weight:normal;text-anchor:end;" transform="rotate(-0, 37.228, 119.844239)" x="37.228" y="119.844239">20</text>
     </g>
    </g>
    <g id="ytick_6">
     <g id="line2d_9">
      <g>
       <use style="stroke:#000000;stroke-width:0.8;" x="44.228" xlink:href="#mffaffce62d" y="79.055276"/>
      </g>
     </g>
     <g id="text_10">
      <text style="font-family:DejaVu Sans;font-size:10px;font-style:normal;font-weight:normal;text-anchor:end;" transform="rotate(-0, 37.228, 82.854494)" x="37.228" y="82.854494">25</text>
     </g>
    </g>
    <g id="ytick_7">
     <g id="line2d_10">
      <g>
       <use style="stroke:#000000;stroke-width:0.8;" x="44.228" xlink:href="#mffaffce62d" y="42.065531"/>
      </g>
     </g>
     <g id="text_11">
      <text style="font-family:DejaVu Sans;font-size:10px;font-style:normal;font-weight:normal;text-anchor:end;" transform="rotate(-0, 37.228, 45.86475)" x="37.228" y="45.86475">30</text>
     </g>
    </g>
    <g id="text_12">
     <text style="font-family:DejaVu Sans;font-size:10px;font-style:normal;font-weight:normal;text-anchor:middle;" transform="rotate(-90, 18.423313, 150.29)" x="18.423313" y="150.29">Mean log-odds magnitude</text>
    </g>
   </g>
   <g id="line2d_11">
    <path clip-path="url(#p7d2d87596d)" d="M 96.140486 235.206332
L 205.6605 235.206332
L 315.180514 235.206332
" style="fill:none;stroke:#000000;stroke-dasharray:5.55,2.4;stroke-dashoffset:0;stroke-width:1.5;"/>
    <defs>
     <path d="M 0 2
C 0.530406 2 1.03916 1.789267 1.414214 1.414214
C 1.789267 1.03916 2 0.530406 2 0
C 2 -0.530406 1.789267 -1.03916 1.414214 -1.414214
C 1.03916 -1.789267 0.530406 -2 0 -2
C -0.530406 -2 -1.03916 -1.789267 -1.414214 -1.414214
C -1.789267 -1.03916 -2 -0.530406 -2 0
C -2 0.530406 -1.789267 1.03916 -1.414214 1.414214
C -1.03916 1.789267 -0.530406 2 0 2
z
" id="m0c23e481f7" style="stroke:#000000;"/>
    </defs>
    <g clip-path="url(#p7d2d87596d)">
     <use style="stroke:#000000;" x="96.140486" xlink:href="#m0c23e481f7" y="235.206332"/>
     <use style="stroke:#000000;" x="205.6605" xlink:href="#m0c23e481f7" y="235.206332"/>
     <use style="stroke:#000000;" x="315.180514" xlink:href="#m0c23e481f7" y="235.206332"/>
    </g>
   </g>
   <g id="line2d_12">
    <path clip-path="url(#p7d2d87596d)" d="M 96.140486 255.512558
L 205.6605 255.927011
L 315.180514 255.736499
" style="fill:none;stroke:#777777;stroke-dasharray:1.5,2.475;stroke-dashoffset:0;stroke-width:1.5;"/>
    <defs>
     <path d="M -3 3
L 3 3
L 3 -3
L -3 -3
z
" id="m2d3a23803a" style="stroke:#777777;stroke-linejoin:miter;"/>
    </defs>
    <g clip-path="url(#p7d2d87596d)">
     <use style="fill:#777777;stroke:#777777;stroke-linejoin:miter;" x="96.140486" xlink:href="#m2d3a23803a" y="255.512558"/>
     <use style="fill:#777777;stroke:#777777;stroke-linejoin:miter;" x="205.6605" xlink:href="#m2d3a23803a" y="255.927011"/>
     <use style="fill:#777777;stroke:#777777;stroke-linejoin:miter;" x="315.180514" xlink:href="#m2d3a23803a" y="255.736499"/>
    </g>
   </g>
   <g id="patch_9">
    <path d="M 44.228 264.004
L 44.228 36.576
" style="fill:none;stroke:#000000;stroke-linecap:square;stroke-linejoin:miter;stroke-width:0.8;"/>
   </g>
   <g id="patch_10">
    <path d="M 44.228 264.004
L 367.093 264.004
" style="fill:none;stroke:#000000;stroke-linecap:square;stroke-linejoin:miter;stroke-width:0.8;"/>
   </g>
   <g id="legend_1">
    <g id="patch_11">
     <path d="M 221.5605 89.946
L 361.493 89.946
Q 363.093 89.946 363.093 88.346
L 363.093 42.176
Q 363.093 40.576 361.493 40.576
L 221.5605 40.576
Q 219.9605 40.576 219.9605 42.176
L 219.9605 88.346
Q 219.9605 89.946 221.5605 89.946
z
" style="fill:#ffffff;opacity:0.8;stroke:#cccccc;stroke-linejoin:miter;"/>
    </g>
    <g id="line2d_13">
     <path d="M 223.1605 47.05475
L 239.1605 47.05475
" style="fill:none;stroke:#000000;stroke-dasharray:5.55,2.4;stroke-dashoffset:0;stroke-width:1.5;"/>
    </g>
    <g id="line2d_14">
     <g>
      <use style="stroke:#000000;" x="231.1605" xlink:href="#m0c23e481f7" y="47.05475"/>
     </g>
    </g>
    <g id="text_13">
     <text style="font-family:DejaVu Sans;font-size:8px;font-style:normal;font-weight:normal;text-anchor:start;" transform="rotate(-0, 245.5605, 49.85475)" x="245.5605" y="49.85475">Center distance to threshold</text>
    </g>
    <g id="line2d_15">
     <path d="M 223.1605 58.79725
L 239.1605 58.79725
" style="fill:none;stroke:#777777;stroke-dasharray:1.5,2.475;stroke-dashoffset:0;stroke-width:1.5;"/>
    </g>
    <g id="line2d_16">
     <g>
      <use style="fill:#777777;stroke:#777777;stroke-linejoin:miter;" x="231.1605" xlink:href="#m2d3a23803a" y="58.79725"/>
     </g>
    </g>
    <g id="text_14">
     <text style="font-family:DejaVu Sans;font-size:8px;font-style:normal;font-weight:normal;text-anchor:start;" transform="rotate(-0, 245.5605, 61.59725)" x="245.5605" y="61.59725">Actual fine/coarse error</text>
    </g>
    <g id="patch_12">
     <path d="M 223.1605 73.33975
L 239.1605 73.33975
L 239.1605 67.73975
L 223.1605 67.73975
z
" style="fill:#2371a5;"/>
    </g>
    <g id="text_15">
     <text style="font-family:DejaVu Sans;font-size:8px;font-style:normal;font-weight:normal;text-anchor:start;" transform="rotate(-0, 245.5605, 73.33975)" x="245.5605" y="73.33975">Original radius</text>
    </g>
    <g id="patch_13">
     <path d="M 223.1605 85.08225
L 239.1605 85.08225
L 239.1605 79.48225
L 223.1605 79.48225
z
" style="fill:#da7927;"/>
    </g>
    <g id="text_16">
     <text style="font-family:DejaVu Sans;font-size:8px;font-style:normal;font-weight:normal;text-anchor:start;" transform="rotate(-0, 245.5605, 85.08225)" x="245.5605" y="85.08225">Tightened radius</text>
    </g>
   </g>
  </g>
  <g id="axes_2">
   <g id="patch_14">
    <path d="M 429.103 264.004
L 751.968 264.004
L 751.968 36.576
L 429.103 36.576
z
" style="fill:#ffffff;"/>
   </g>
   <g id="patch_15">
    <path clip-path="url(#pba5296a9c8)" d="M 443.778682 264.004
L 538.972294 264.004
L 538.972294 81.95553
L 443.778682 81.95553
z
" style="fill:#2371a5;opacity:0.6;"/>
   </g>
   <g id="patch_16">
    <path clip-path="url(#pba5296a9c8)" d="M 642.098706 264.004
L 737.292318 264.004
L 737.292318 73.774692
L 642.098706 73.774692
z
" style="fill:#da7927;opacity:0.6;"/>
   </g>
   <g id="matplotlib.axis_3">
    <g id="xtick_4">
     <g id="line2d_17">
      <g>
       <use style="stroke:#000000;stroke-width:0.8;" x="491.375488" xlink:href="#m824f4552c8" y="264.004"/>
      </g>
     </g>
     <g id="text_17">
      <text style="font-family:DejaVu Sans;font-size:10px;font-style:normal;font-weight:normal;text-anchor:middle;" transform="rotate(-0, 491.375488, 278.602437)" x="491.375488" y="278.602437">Original selective</text>
     </g>
    </g>
    <g id="xtick_5">
     <g id="line2d_18">
      <g>
       <use style="stroke:#000000;stroke-width:0.8;" x="689.695512" xlink:href="#m824f4552c8" y="264.004"/>
      </g>
     </g>
     <g id="text_18">
      <text style="font-family:DejaVu Sans;font-size:10px;font-style:normal;font-weight:normal;text-anchor:middle;" transform="rotate(-0, 689.695512, 278.602437)" x="689.695512" y="278.602437">Tightened selective</text>
     </g>
    </g>
   </g>
   <g id="matplotlib.axis_4">
    <g id="ytick_8">
     <g id="line2d_19">
      <g>
       <use style="stroke:#000000;stroke-width:0.8;" x="429.103" xlink:href="#mffaffce62d" y="264.004"/>
      </g>
     </g>
     <g id="text_19">
      <text style="font-family:DejaVu Sans;font-size:10px;font-style:normal;font-weight:normal;text-anchor:end;" transform="rotate(-0, 422.103, 267.803219)" x="422.103" y="267.803219">0.0</text>
     </g>
    </g>
    <g id="ytick_9">
     <g id="line2d_20">
      <g>
       <use style="stroke:#000000;stroke-width:0.8;" x="429.103" xlink:href="#mffaffce62d" y="233.270486"/>
      </g>
     </g>
     <g id="text_20">
      <text style="font-family:DejaVu Sans;font-size:10px;font-style:normal;font-weight:normal;text-anchor:end;" transform="rotate(-0, 422.103, 237.069705)" x="422.103" y="237.069705">0.2</text>
     </g>
    </g>
    <g id="ytick_10">
     <g id="line2d_21">
      <g>
       <use style="stroke:#000000;stroke-width:0.8;" x="429.103" xlink:href="#mffaffce62d" y="202.536973"/>
      </g>
     </g>
     <g id="text_21">
      <text style="font-family:DejaVu Sans;font-size:10px;font-style:normal;font-weight:normal;text-anchor:end;" transform="rotate(-0, 422.103, 206.336192)" x="422.103" y="206.336192">0.4</text>
     </g>
    </g>
    <g id="ytick_11">
     <g id="line2d_22">
      <g>
       <use style="stroke:#000000;stroke-width:0.8;" x="429.103" xlink:href="#mffaffce62d" y="171.803459"/>
      </g>
     </g>
     <g id="text_22">
      <text style="font-family:DejaVu Sans;font-size:10px;font-style:normal;font-weight:normal;text-anchor:end;" transform="rotate(-0, 422.103, 175.602678)" x="422.103" y="175.602678">0.6</text>
     </g>
    </g>
    <g id="ytick_12">
     <g id="line2d_23">
      <g>
       <use style="stroke:#000000;stroke-width:0.8;" x="429.103" xlink:href="#mffaffce62d" y="141.069946"/>
      </g>
     </g>
     <g id="text_23">
      <text style="font-family:DejaVu Sans;font-size:10px;font-style:normal;font-weight:normal;text-anchor:end;" transform="rotate(-0, 422.103, 144.869165)" x="422.103" y="144.869165">0.8</text>
     </g>
    </g>
    <g id="ytick_13">
     <g id="line2d_24">
      <g>
       <use style="stroke:#000000;stroke-width:0.8;" x="429.103" xlink:href="#mffaffce62d" y="110.336432"/>
      </g>
     </g>
     <g id="text_24">
      <text style="font-family:DejaVu Sans;font-size:10px;font-style:normal;font-weight:normal;text-anchor:end;" transform="rotate(-0, 422.103, 114.135651)" x="422.103" y="114.135651">1.0</text>
     </g>
    </g>
    <g id="ytick_14">
     <g id="line2d_25">
      <g>
       <use style="stroke:#000000;stroke-width:0.8;" x="429.103" xlink:href="#mffaffce62d" y="79.602919"/>
      </g>
     </g>
     <g id="text_25">
      <text style="font-family:DejaVu Sans;font-size:10px;font-style:normal;font-weight:normal;text-anchor:end;" transform="rotate(-0, 422.103, 83.402138)" x="422.103" y="83.402138">1.2</text>
     </g>
    </g>
    <g id="ytick_15">
     <g id="line2d_26">
      <g>
       <use style="stroke:#000000;stroke-width:0.8;" x="429.103" xlink:href="#mffaffce62d" y="48.869405"/>
      </g>
     </g>
     <g id="text_26">
      <text style="font-family:DejaVu Sans;font-size:10px;font-style:normal;font-weight:normal;text-anchor:end;" transform="rotate(-0, 422.103, 52.668624)" x="422.103" y="52.668624">1.4</text>
     </g>
    </g>
    <g id="text_27">
     <text style="font-family:DejaVu Sans;font-size:10px;font-style:normal;font-weight:normal;text-anchor:middle;" transform="rotate(-90, 400.120187, 150.29)" x="400.120187" y="150.29">Complete time / paired fine time</text>
    </g>
   </g>
   <g id="line2d_27">
    <path clip-path="url(#pba5296a9c8)" d="M 429.103 110.336432
L 751.968 110.336432
" style="fill:none;stroke:#777777;stroke-linecap:square;stroke-width:1.5;"/>
   </g>
   <g id="line2d_28">
    <path clip-path="url(#pba5296a9c8)" d="M 429.103 125.703189
L 751.968 125.703189
" style="fill:none;stroke:#da7927;stroke-dasharray:5.55,2.4;stroke-dashoffset:0;stroke-width:1.5;"/>
   </g>
   <g id="patch_17">
    <path d="M 429.103 264.004
L 429.103 36.576
" style="fill:none;stroke:#000000;stroke-linecap:square;stroke-linejoin:miter;stroke-width:0.8;"/>
   </g>
   <g id="patch_18">
    <path d="M 429.103 264.004
L 751.968 264.004
" style="fill:none;stroke:#000000;stroke-linecap:square;stroke-linejoin:miter;stroke-width:0.8;"/>
   </g>
   <g id="PathCollection_1">
    <defs>
     <path d="M 0 2.236068
C 0.593012 2.236068 1.161816 2.000462 1.581139 1.581139
C 2.000462 1.161816 2.236068 0.593012 2.236068 0
C 2.236068 -0.593012 2.000462 -1.161816 1.581139 -1.581139
C 1.161816 -2.000462 0.593012 -2.236068 0 -2.236068
C -0.593012 -2.236068 -1.161816 -2.000462 -1.581139 -1.581139
C -2.000462 -1.161816 -2.236068 -0.593012 -2.236068 0
C -2.236068 0.593012 -2.000462 1.161816 -1.581139 1.581139
C -1.161816 2.000462 -0.593012 2.236068 0 2.236068
z
" id="m32730c7a78" style="stroke:#000000;"/>
    </defs>
    <g clip-path="url(#pba5296a9c8)">
     <use style="stroke:#000000;" x="471.543485" xlink:href="#m32730c7a78" y="73.567654"/>
     <use style="stroke:#000000;" x="481.459486" xlink:href="#m32730c7a78" y="84.981694"/>
     <use style="stroke:#000000;" x="491.375488" xlink:href="#m32730c7a78" y="85.595816"/>
     <use style="stroke:#000000;" x="501.291489" xlink:href="#m32730c7a78" y="83.522794"/>
     <use style="stroke:#000000;" x="511.20749" xlink:href="#m32730c7a78" y="82.10969"/>
    </g>
   </g>
   <g id="PathCollection_2">
    <g clip-path="url(#pba5296a9c8)">
     <use style="stroke:#000000;" x="669.86351" xlink:href="#m32730c7a78" y="71.849624"/>
     <use style="stroke:#000000;" x="679.779511" xlink:href="#m32730c7a78" y="70.175433"/>
     <use style="stroke:#000000;" x="689.695512" xlink:href="#m32730c7a78" y="74.139546"/>
     <use style="stroke:#000000;" x="699.611514" xlink:href="#m32730c7a78" y="76.050852"/>
     <use style="stroke:#000000;" x="709.527515" xlink:href="#m32730c7a78" y="76.658005"/>
    </g>
   </g>
   <g id="legend_2">
    <g id="patch_19">
     <path d="M 635.5905 260.004
L 746.368 260.004
Q 747.968 260.004 747.968 258.404
L 747.968 235.719
Q 747.968 234.119 746.368 234.119
L 635.5905 234.119
Q 633.9905 234.119 633.9905 235.719
L 633.9905 258.404
Q 633.9905 260.004 635.5905 260.004
z
" style="fill:#ffffff;opacity:0.8;stroke:#cccccc;stroke-linejoin:miter;"/>
    </g>
    <g id="line2d_29">
     <path d="M 637.1905 240.59775
L 653.1905 240.59775
" style="fill:none;stroke:#777777;stroke-linecap:square;stroke-width:1.5;"/>
    </g>
    <g id="line2d_30"/>
    <g id="text_28">
     <text style="font-family:DejaVu Sans;font-size:8px;font-style:normal;font-weight:normal;text-anchor:start;" transform="rotate(-0, 659.5905, 243.39775)" x="659.5905" y="243.39775">Fine computation</text>
    </g>
    <g id="line2d_31">
     <path d="M 637.1905 252.34025
L 653.1905 252.34025
" style="fill:none;stroke:#da7927;stroke-dasharray:5.55,2.4;stroke-dashoffset:0;stroke-width:1.5;"/>
    </g>
    <g id="line2d_32"/>
    <g id="text_29">
     <text style="font-family:DejaVu Sans;font-size:8px;font-style:normal;font-weight:normal;text-anchor:start;" transform="rotate(-0, 659.5905, 255.14025)" x="659.5905" y="255.14025">Required 10% saving</text>
    </g>
   </g>
  </g>
  <g id="text_30">
   <text style="font-family:DejaVu Sans;font-size:13px;font-style:normal;font-weight:normal;text-anchor:middle;" transform="rotate(-0, 381.168, 17.077969)" x="381.168" y="17.077969">Stage 2: tighter enclosures still do not resolve events or save time</text>
  </g>
  <g id="text_31">
   <text style="font-family:DejaVu Sans;font-size:8px;font-style:normal;font-weight:normal;text-anchor:start;" transform="rotate(-0, 7.2, 315.252)" x="7.2" y="315.252">16 prespecified origins; 256 coupled scenarios. Both bounds unresolved on 100% of scenarios. Dots: five paired CPU repetitions at 15%.</text>
  </g>
 </g>
 <defs>
  <clipPath id="p7d2d87596d">
   <rect height="227.428" width="322.865" x="44.228" y="36.576"/>
  </clipPath>
  <clipPath id="pba5296a9c8">
   <rect height="227.428" width="322.865" x="429.103" y="36.576"/>
  </clipPath>
 </defs>
</svg>
